<?xml version="1.0" encoding="UTF-8"?><svg id="Layer_1" xmlns="http://www.w3.org/2000/svg" viewBox="0 0 974.41 225.9"><defs><style>.cls-1,.cls-2,.cls-3{stroke-width:0px;}.cls-2{fill:#1a704f;}.cls-3{fill:#29ad82;}</style></defs><path class="cls-2" d="M32.22,20.38v185.06l-17.16,2.6c-7.93,1.2-15.06-4.94-15.06-12.95V30.73c0-8.02,7.14-14.16,15.07-12.95l17.16,2.6h-.01Z"/><path class="cls-3" d="M133.85,13.26L47.27.15c-7.93-1.2-15.06,4.94-15.06,12.95v199.7c0,8.02,7.14,14.15,15.06,12.95l86.58-13.11c6.41-.97,11.14-6.47,11.14-12.95V26.22c0-6.48-4.73-11.98-11.14-12.95h0ZM88.6,198.79c-1.82,0-3.55-.4-5.1-1.11-4.21-1.93-7.14-6.19-7.14-11.12,0-6.76,5.48-12.24,12.24-12.24s12.24,5.48,12.24,12.24c0,3.62-1.57,6.87-4.07,9.12-2.16,1.94-5.02,3.12-8.16,3.12h-.01Z"/><polygon class="cls-1" points="337.09 37.74 302.42 37.74 235.86 104.68 235.86 37.74 208.21 37.74 208.21 186.61 235.86 186.61 235.86 136.56 254.55 118.31 305.83 186.61 339.43 186.61 273.17 100.13 337.09 37.74"/><path class="cls-1" d="M417.37,90.27c-2.17-3.23-4.79-6.13-7.87-8.72-3.55-2.98-7.66-5.28-12.34-6.91-4.68-1.63-9.86-2.45-15.53-2.45-9.78,0-18.58,2.48-26.37,7.44-7.8,4.96-13.97,11.84-18.5,20.63-4.54,8.79-6.81,18.79-6.81,29.99s2.27,21.2,6.81,29.99,10.56,15.74,18.08,20.84c7.51,5.1,15.88,7.66,25.1,7.66,5.39,0,10.45-.85,15.21-2.55,4.75-1.7,9.07-3.93,12.97-6.7,3.54-2.51,6.55-5.37,9.04-8.58v15.71h26.58v-112.08h-26.37v15.74h0ZM403.33,161.09c-4.68,2.98-10.07,4.47-16.16,4.47s-11.45-1.49-16.06-4.47-8.19-7.12-10.74-12.44-3.83-11.45-3.83-18.4,1.28-12.83,3.83-18.08c2.55-5.24,6.13-9.36,10.74-12.34,4.61-2.98,9.96-4.47,16.06-4.47s11.48,1.49,16.16,4.47,8.33,7.09,10.95,12.34,3.93,11.27,3.93,18.08-1.31,13.08-3.93,18.4c-2.63,5.32-6.27,9.46-10.95,12.44Z"/><path class="cls-1" d="M616,79.74c-8.79-5.03-18.72-7.55-29.77-7.55s-21.2,2.52-29.99,7.55c-8.79,5.03-15.74,11.95-20.84,20.74-5.1,8.79-7.66,18.79-7.66,29.99s2.55,21.2,7.66,29.99c5.1,8.79,12.05,15.7,20.84,20.74,8.79,5.03,18.79,7.55,29.99,7.55s20.98-2.52,29.77-7.55c8.79-5.03,15.7-11.94,20.74-20.74,5.03-8.79,7.55-18.78,7.55-29.99s-2.52-21.19-7.55-29.99c-5.03-8.79-11.95-15.7-20.74-20.74h0ZM613.77,148.33c-2.76,5.25-6.52,9.43-11.27,12.55s-10.18,4.68-16.27,4.68-11.59-1.56-16.48-4.68-8.69-7.3-11.38-12.55c-2.7-5.24-4.04-11.2-4.04-17.86s1.35-12.65,4.04-17.97c2.69-5.32,6.49-9.5,11.38-12.55s10.38-4.57,16.48-4.57,11.52,1.53,16.27,4.57c4.75,3.05,8.51,7.2,11.27,12.44,2.76,5.25,4.07,11.27,3.93,18.08.14,6.67-1.17,12.62-3.93,17.86h0Z"/><path class="cls-1" d="M746.36,80.05c-7.73-4.96-16.62-7.44-26.69-7.44-4.54,0-9.01.74-13.4,2.23-4.4,1.49-8.44,3.48-12.12,5.95-3.69,2.48-6.77,5.25-9.25,8.29-.04.04-.07.09-.11.13v-54.48h-26.16v151.86h25.31l.32-13.46c2.42,2.83,5.36,5.4,8.82,7.71,3.83,2.55,8.11,4.57,12.87,6.06,4.75,1.49,9.6,2.23,14.57,2.23,9.64,0,18.32-2.52,26.05-7.55,7.73-5.03,13.79-11.94,18.18-20.74,4.39-8.79,6.59-18.85,6.59-30.2s-2.23-21.19-6.7-29.99c-4.47-8.79-10.56-15.66-18.29-20.63v.03ZM742,149.07c-2.7,5.32-6.38,9.5-11.06,12.55s-10,4.57-15.95,4.57-11.48-1.52-16.16-4.57-8.37-7.23-11.06-12.55c-2.7-5.32-4.04-11.45-4.04-18.4s1.35-12.83,4.04-18.08c2.69-5.24,6.38-9.36,11.06-12.34,4.68-2.98,10.07-4.47,16.16-4.47s11.48,1.49,16.16,4.47,8.33,7.09,10.95,12.34,3.93,11.27,3.93,18.08-1.35,13.08-4.04,18.4h.01Z"/><path class="cls-1" d="M869.5,90.27c-2.17-3.23-4.79-6.13-7.87-8.72-3.55-2.98-7.66-5.28-12.34-6.91-4.68-1.63-9.86-2.45-15.53-2.45-9.78,0-18.58,2.48-26.37,7.44-7.8,4.96-13.97,11.84-18.5,20.63-4.54,8.79-6.81,18.79-6.81,29.99s2.27,21.2,6.81,29.99,10.56,15.74,18.08,20.84c7.51,5.1,15.88,7.66,25.1,7.66,5.39,0,10.45-.85,15.21-2.55,4.75-1.7,9.07-3.93,12.97-6.7,3.54-2.51,6.55-5.37,9.04-8.58v15.71h26.58v-112.08h-26.37v15.74h0ZM855.46,161.09c-4.68,2.98-10.07,4.47-16.16,4.47s-11.45-1.49-16.06-4.47c-4.61-2.98-8.19-7.12-10.74-12.44s-3.83-11.45-3.83-18.4,1.28-12.83,3.83-18.08c2.55-5.24,6.13-9.36,10.74-12.34,4.61-2.98,9.96-4.47,16.06-4.47s11.48,1.49,16.16,4.47,8.33,7.09,10.95,12.34,3.93,11.27,3.93,18.08-1.31,13.08-3.93,18.4c-2.63,5.32-6.27,9.46-10.95,12.44Z"/><path class="cls-1" d="M523.06,72.55c-1.68-.24-3.41-.35-5.2-.35-5.53,0-10.81,1.31-15.84,3.93-5.03,2.63-9.46,6.2-13.29,10.74-1.81,2.14-3.36,4.42-4.66,6.81l-.23-19.15h-25.73v112.08h26.37v-59.76c0-3.97.67-7.55,2.02-10.74,1.35-3.19,3.22-5.99,5.64-8.4,2.41-2.41,5.21-4.29,8.4-5.64,3.19-1.35,6.56-2.02,10.1-2.02,2.27,0,4.54.29,6.81.85,2.21.55,4.09,1.24,5.63,2.07v-30.43h-.02Z"/><path class="cls-1" d="M974.39,72.55c-1.69-.24-3.44-.36-5.25-.36-5.53,0-10.81,1.31-15.84,3.93-5.03,2.63-9.46,6.2-13.29,10.74-1.81,2.14-3.36,4.42-4.66,6.81l-.23-19.15h-25.73v112.08h26.37v-59.76c0-3.97.67-7.55,2.02-10.74s3.22-5.99,5.64-8.4,5.21-4.29,8.4-5.64c3.19-1.35,6.56-2.02,10.1-2.02,2.27,0,4.54.29,6.81.85,2.24.56,4.13,1.26,5.68,2.09v-30.44h-.02Z"/></svg>