<svg width="486" height="73" viewBox="0 0 486 73" fill="none" xmlns="http://www.w3.org/2000/svg">
<path d="M36.6623 0L8.95973 49.2635C5.71791 55.2168 7.75115 67.808 16.4746 71.1418C25.1981 74.4757 32.0943 73.0766 35.1889 68.9093L63.0391 20.6877C62.9409 19.6459 65.2494 16.2227 63.0391 8.92994C61.3882 3.48284 59.3552 1.78599 53.0189 0H36.6623Z" fill="#263869"/>
<path d="M34.7467 0.297665L16.9166 32.4454L16.1797 33.6361C13.2817 32.8919 7.48573 30.6594 5.42282 28.5758C2.96375 26.092 -1.79737 19.6459 0.707687 10.7159C2.71173 3.57197 8.95932 0 12.938 0L34.7467 0.297665Z" fill="#263869"/>
<path d="M106.72 57.14C93.6 57.14 85.6 52.468 85.6 41.588V41.204H97.632V42.548C97.632 45.428 98.656 46.196 106.72 46.196C114.016 46.196 114.784 45.62 114.784 43.7C114.784 42.164 113.952 41.524 110.432 41.076L96.992 39.284C88.992 38.196 84.96 33.908 84.96 26.996C84.96 20.148 90.272 12.98 105.76 12.98C119.392 12.98 125.92 18.932 125.92 28.532V28.916H113.888V27.956C113.888 24.884 112.544 23.86 104.48 23.86C98.336 23.86 96.992 24.692 96.992 26.548C96.992 27.892 97.76 28.532 100.064 28.852L113.504 30.836C124 32.372 126.816 37.748 126.816 43.252C126.816 50.612 121.184 57.14 106.72 57.14ZM145.734 57.14C134.79 57.14 127.11 52.468 127.11 40.372C127.11 29.876 134.726 23.604 145.478 23.604C156.614 23.604 163.718 29.172 163.718 39.54C163.718 40.628 163.654 41.46 163.526 42.612H138.246C138.438 46.516 140.166 47.604 145.286 47.604C150.15 47.604 151.43 46.772 151.43 44.852V44.148H163.462V44.916C163.462 52.084 156.614 57.14 145.734 57.14ZM145.222 32.82C140.806 32.82 138.95 33.78 138.438 36.532H152.07C151.622 33.78 149.702 32.82 145.222 32.82ZM191.962 56.5H177.114L162.778 24.244H176.218L184.282 44.788H185.114L193.242 24.244H206.426L191.962 56.5ZM224.081 57.14C213.137 57.14 205.457 52.468 205.457 40.372C205.457 29.876 213.073 23.604 223.825 23.604C234.962 23.604 242.065 29.172 242.065 39.54C242.065 40.628 242.001 41.46 241.874 42.612H216.593C216.785 46.516 218.513 47.604 223.633 47.604C228.497 47.604 229.777 46.772 229.777 44.852V44.148H241.809V44.916C241.809 52.084 234.962 57.14 224.081 57.14ZM223.569 32.82C219.153 32.82 217.297 33.78 216.785 36.532H230.417C229.969 33.78 228.049 32.82 223.569 32.82ZM255.397 56.5H243.365V24.244H254.629V34.036H255.269C255.973 28.66 259.493 23.604 268.133 23.604C276.837 23.604 280.933 28.852 280.933 35.828V56.5H268.901V40.244C268.901 35.764 267.237 34.356 261.989 34.356C256.677 34.356 255.397 35.7 255.397 39.86V56.5ZM294.602 56.5H282.57V13.62H294.602V56.5ZM314.509 57.14C303.565 57.14 295.885 52.468 295.885 40.372C295.885 29.876 303.501 23.604 314.253 23.604C325.389 23.604 332.493 29.172 332.493 39.54C332.493 40.628 332.429 41.46 332.301 42.612H307.021C307.213 46.516 308.941 47.604 314.061 47.604C318.925 47.604 320.205 46.772 320.205 44.852V44.148H332.237V44.916C332.237 52.084 325.389 57.14 314.509 57.14ZM313.997 32.82C309.581 32.82 307.725 33.78 307.213 36.532H320.845C320.397 33.78 318.477 32.82 313.997 32.82ZM348.448 57.14C338.592 57.14 333.152 50.804 333.152 40.372C333.152 29.876 338.464 23.604 347.936 23.604C355.552 23.604 359.136 27.188 360.096 32.564H360.736V13.62H372.769V56.5H361.504V47.796H360.864C359.84 54.196 356 57.14 348.448 57.14ZM345.312 40.372C345.312 44.66 347.232 46.132 352.8 46.132C358.176 46.132 360.736 45.108 360.736 40.436V39.988C360.736 35.444 358.176 34.548 352.8 34.548C347.232 34.548 345.312 36.084 345.312 40.372ZM389.021 52.916C379.421 52.916 374.045 47.412 374.045 38.196C374.045 29.108 379.805 23.604 389.341 23.604C395.869 23.604 400.221 26.228 401.117 31.796H401.757V24.244H413.021V51.06C413.021 62.58 406.173 68.02 393.757 68.02C382.493 68.02 375.965 63.284 375.965 54.836H387.997C387.997 57.46 388.317 58.1 394.589 58.1C399.773 58.1 400.989 57.332 400.989 51.892V45.108H400.349C399.517 49.78 396.125 52.916 389.021 52.916ZM386.205 38.196C386.205 41.396 387.741 42.612 393.373 42.612C398.749 42.612 400.989 41.972 400.989 38.58V38.132C400.989 34.676 398.749 33.972 393.373 33.972C387.741 33.972 386.205 35.06 386.205 38.196ZM432.937 57.14C421.993 57.14 414.313 52.468 414.313 40.372C414.313 29.876 421.929 23.604 432.681 23.604C443.817 23.604 450.921 29.172 450.921 39.54C450.921 40.628 450.857 41.46 450.729 42.612H425.449C425.641 46.516 427.369 47.604 432.489 47.604C437.353 47.604 438.633 46.772 438.633 44.852V44.148H450.665V44.916C450.665 52.084 443.817 57.14 432.937 57.14ZM432.425 32.82C428.009 32.82 426.153 33.78 425.641 36.532H439.273C438.825 33.78 436.905 32.82 432.425 32.82ZM464.252 56.5H452.22V24.244H463.484V32.692H464.124C465.02 27.38 468.348 23.604 474.748 23.604C481.852 23.604 484.668 28.276 484.668 34.74V41.14H472.636V37.364C472.636 34.676 471.612 33.716 468.476 33.716C465.212 33.716 464.252 34.676 464.252 37.236V56.5Z" fill="#263869"/>
</svg>
