<svg xmlns="http://www.w3.org/2000/svg" width="169" height="30" fill="none" viewBox="0 0 169 30"><path fill="#FAFAFA" d="M1.301 16.712v7.13H0V6.06h4.549q2.905 0 4.441 1.271t1.537 3.714c0 1.628-.572 3.013-1.715 4.074q-1.716 1.593-4.804 1.594H1.3zm0-9.522v8.395h2.68q2.551.002 3.878-1.148 1.327-1.146 1.327-3.241 0-4.005-4.875-4.006zM24.288 23.841l-2.511-5.207q-.775-1.614-1.552-2.163-.775-.552-1.944-.553h-2.34v7.923h-1.3V6.061h5.23c1.665 0 2.97.424 3.924 1.271q1.425 1.271 1.425 3.355 0 1.92-1.17 3.213-1.17 1.29-3.272 1.661v.05q1.117.423 2.183 2.567l2.8 5.668h-1.473zM15.944 7.19v7.614h3.245q2.155 0 3.424-1.066 1.268-1.067 1.268-2.926 0-1.698-1.144-2.66-1.144-.96-3.272-.96h-3.521zM29.585 23.841V6.061h1.301v17.78zM64.19 23.841l-2.157-5.53h-8.175L51.7 23.84H50.27l7.11-17.78h1.237l7.032 17.78zM58.407 8.962a6 6 0 0 1-.236-.73 16 16 0 0 0-.198-.62h-.052q-.224.819-.434 1.326l-3.167 8.246h7.268zM41.185 15.614l-9.036 13.157h3.117l7.45-10.856 3.804 5.135h2.642l-5.151-7.113 8.533-12.355h-3.277l-6.71 10.002-4.12-5.724h-2.96zM53.178 2.46l-.317.695h-3.277l.424-.695zM54.024 1.283l-.317.695H50.43l.422-.695zM51.962 0l-.421.695h2.8V0zM32.149 29.039l.212.641h2.323l.37-.641zM75.775 25.822h-1.127V3.858h1.127zM161.866 22.666h6.537v.952h-7.664V6.038h1.127zM155.007 19.11h-8.34l-1.678 4.508h-1.227l6.461-17.18h1.253l6.436 17.18h-1.227zm-.351-.951-3.807-10.243-3.831 10.243zM142.355 6.037v.952h-5.009v16.629h-1.127V6.988h-5.009v-.95zM128.507 6.037v17.581h-1.127V6.038zM122.117 11.221a6.48 6.48 0 0 0-2.504-3.155q-1.728-1.177-4.107-1.177-2.079 0-3.757.976-1.677.977-2.654 2.78t-.977 4.208.977 4.207 2.654 2.78q1.678.951 3.757.952 2.003 0 3.631-.902a6.83 6.83 0 0 0 2.605-2.555q.976-1.677 1.077-3.906h-7.839v-.952h8.991v.751q-.075 2.454-1.177 4.408a8 8 0 0 1-3.006 3.055q-1.903 1.102-4.282 1.102-2.43 0-4.383-1.127a8.1 8.1 0 0 1-3.055-3.18q-1.102-2.055-1.102-4.633 0-2.605 1.102-4.633 1.101-2.055 3.055-3.181 1.953-1.152 4.383-1.152 2.83 0 4.883 1.427 2.079 1.403 3.031 3.907zM103.537 6.037v17.581h-1.127V6.038zM89.71 6.037q4.456 0 6.861 2.33 2.43 2.328 2.43 6.486t-2.43 6.46q-2.404 2.305-6.862 2.305h-4.934V6.038zm0 16.63q3.981 0 6.06-2.054 2.078-2.079 2.078-5.76 0-3.707-2.078-5.786Q93.69 6.99 89.71 6.99h-3.808v15.677z"></path></svg>